<svg version="1.1" xmlns="http://www.w3.org/2000/svg" viewBox="0 0 3178.077524578488 2085.6176177763145" width="3178.077524578488" height="2085.6176177763145">
  <!-- svg-source:excalidraw -->
  
  <defs>
    <style class="style-fonts">
      @font-face {
        font-family: "Virgil";
        src: url("https://excalidraw.com/Virgil.woff2");
      }
      @font-face {
        font-family: "Cascadia";
        src: url("https://excalidraw.com/Cascadia.woff2");
      }
    </style>
  </defs>
  <rect x="0" y="0" width="3178.077524578488" height="2085.6176177763145" fill="#ffffff"></rect><g stroke-linecap="round" transform="translate(896.7680328203842 1057.3440846018602) rotate(0 333.4884075589953 444.7521274110136)"><path d="M0.06 -0.35 C224.48 1, 449.37 1.07, 667.74 -0.03 M0.17 -0.21 C159.24 0.37, 318.16 0.36, 667.22 0.09 M667.38 -0.68 C667.66 215.31, 667.63 430.58, 667.19 890.14 M667.12 -0.16 C666.14 328.94, 665.75 658.47, 666.64 889.4 M667.68 889.97 C474.1 890.02, 282.97 889.94, -0.7 889.61 M667.12 889.67 C507.68 891.21, 348.94 890.97, -0.31 889.32 M-0.23 890.05 C-1.27 644.98, -0.65 400.7, -0.04 0.55 M0.23 889.27 C1.07 692.73, 1.36 495.94, -0.33 0.09" stroke="#1e1e1e" stroke-width="1" fill="none"></path></g><g transform="translate(1090.1522686264507 1436.2033562118731) rotate(0 140.1041717529297 65.89285580099977)"><text x="140.1041717529297" y="0" font-family="Helvetica, Segoe UI Emoji" font-size="114.59627095826056px" fill="#1e1e1e" text-anchor="middle" style="white-space: pre;" direction="ltr" dominant-baseline="text-before-edge">users</text></g><g stroke-linecap="round" transform="translate(10 559.1769648796067) rotate(0 173.35046329803845 231.18640885845048)"><path d="M-0.96 0.37 C81.45 -0.06, 164.46 -1.46, 347.99 -0.02 M0.32 -0.63 C96.1 -0.17, 192.37 0.43, 347.2 -0.63 M346.86 0.01 C346.07 138.92, 346.74 276.55, 347.11 462.92 M346.69 -0.34 C347.79 147.85, 347.88 294.95, 346.47 462.2 M346.58 463.34 C217.78 461.45, 89.97 461.29, 1.14 462.35 M346.94 462.67 C236.5 464.61, 125.35 465.02, 0.28 462.77 M0.64 462.85 C-2.13 315.35, -1.05 168.33, 0.32 0.69 M0.02 462.31 C-0.15 350.83, -0.49 238.73, 0.27 0.41" stroke="#1e1e1e" stroke-width="1" fill="none"></path></g><g transform="translate(99.28310280959522 756.4548678162732) rotate(0 84.41059112548828 34.25173655882918)"><text x="84.41059112548828" y="0" font-family="Helvetica, Segoe UI Emoji" font-size="59.56823749361595px" fill="#1e1e1e" text-anchor="middle" style="white-space: pre;" direction="ltr" dominant-baseline="text-before-edge">orders</text></g><g stroke-linecap="round" transform="translate(141.71325962601077 1613.2448000594131) rotate(0 173.35046329803845 231.1864088584507)"><path d="M1.04 0.08 C78.77 1.89, 156.04 1.9, 345.99 1.24 M-0.26 0.07 C78.71 -0.58, 157.85 -0.48, 346.14 0.64 M346.45 0.59 C343.99 104.93, 344.38 210.3, 347.3 462.94 M346.8 0.16 C346.28 156.02, 346.16 312.11, 347.03 462.62 M345.58 462.34 C261.6 460.25, 176.12 460, -1.19 461.81 M347.2 462.57 C222.4 464.39, 97.6 463.69, 0.34 462.13 M-0.08 462.42 C1.08 296.43, 0.89 131.86, -0.25 0.73 M-0.33 462.32 C-1.83 324.13, -2.16 186.5, 0.37 -0.39" stroke="#1e1e1e" stroke-width="1" fill="none"></path></g><g transform="translate(177.66566689377578 1810.1794723590347) rotate(0 137.39805603027344 34.25173655882918)"><text x="137.39805603027344" y="0" font-family="Helvetica, Segoe UI Emoji" font-size="59.56823749361595px" fill="#1e1e1e" text-anchor="middle" style="white-space: pre;" direction="ltr" dominant-baseline="text-before-edge">addresses</text></g><g stroke-linecap="round" transform="translate(1179.1472940723688 10) rotate(0 173.35046329803845 231.18640885845048)"><path d="M0.89 0.01 C122.44 -1.82, 243.34 -0.97, 346.3 -1.16 M0.59 0.13 C124.93 -0.29, 250.39 0.07, 346.7 -0.29 M346.71 0.4 C346.35 136.54, 346.25 273.77, 346.85 462.56 M346.49 0.16 C347.07 168.92, 347.64 338.04, 346.25 462.38 M345.76 462.66 C254.23 462.5, 158.88 462.08, -1.25 461.7 M346.86 462.96 C237.6 462.2, 130.17 462.19, 0.1 461.89 M-0.42 463.28 C0.68 317.62, 1.01 174.06, -0.21 -0.85 M0.4 462.73 C-1.6 295.94, -1.39 129.52, 0.05 -0.11" stroke="#1e1e1e" stroke-width="1" fill="none"></path></g><g transform="translate(1249.8672718357393 206.93467229962152) rotate(0 102.63048553466797 34.25173655882918)"><text x="102.63048553466797" y="0" font-family="Helvetica, Segoe UI Emoji" font-size="59.56823749361595px" fill="#1e1e1e" text-anchor="middle" style="white-space: pre;" direction="ltr" dominant-baseline="text-before-edge">baskets</text></g><g stroke-linecap="round" transform="translate(2501.1007094604975 126.90639386639896) rotate(0 333.4884075589953 444.7521274110136)"><path d="M-0.58 -0.02 C206.54 0.19, 412.7 -0.08, 666.59 -0.44 M-0.06 0.04 C138.68 2.01, 277.09 1.46, 667.05 -0.26 M666.25 -0.32 C666.78 282.11, 666.6 564.99, 667.05 890.14 M666.86 -0.34 C668.44 281.11, 668.32 562.88, 667.35 889.88 M666.51 889.38 C486.11 889.44, 306.08 888.39, 0.73 889.74 M666.89 889.67 C467.88 887.32, 269.48 887.32, -0.07 889.39 M-0.39 888.95 C1.11 602.68, 0.55 314.91, 0.65 0.71 M0.25 889.25 C-2.48 572.76, -1.89 256.3, 0.04 -0.03" stroke="#1e1e1e" stroke-width="1" fill="none"></path></g><g transform="translate(2608.4864864042593 505.76566547641187) rotate(0 226.10263061523438 65.89285580099977)"><text x="226.10263061523438" y="0" font-family="Helvetica, Segoe UI Emoji" font-size="114.59627095826056px" fill="#1e1e1e" text-anchor="middle" style="white-space: pre;" direction="ltr" dominant-baseline="text-before-edge">Products</text></g><g mask="url(#mask-lPh8nMe7IiQpakLabIcXX)" stroke-linecap="round"><g transform="translate(1357.0595932213073 1051.4570863175986) rotate(0 0 -287.51426092650763)"><path d="M0 0 C0 -95.84, 0 -479.19, 0 -575.03 M0 0 C0 -95.84, 0 -479.19, 0 -575.03" stroke="#1e1e1e" stroke-width="4" fill="none"></path></g><g transform="translate(1357.0595932213073 1051.4570863175986) rotate(0 0 -287.51426092650763)"><path d="M10.26 -546.84 C7.79 -553.62, 5.32 -560.4, 0 -575.03 M10.26 -546.84 C6.42 -557.4, 2.57 -567.95, 0 -575.03" stroke="#1e1e1e" stroke-width="4" fill="none"></path></g><g transform="translate(1357.0595932213073 1051.4570863175986) rotate(0 0 -287.51426092650763)"><path d="M-10.26 -546.84 C-7.79 -553.62, -5.32 -560.4, 0 -575.03 M-10.26 -546.84 C-6.42 -557.4, -2.57 -567.95, 0 -575.03" stroke="#1e1e1e" stroke-width="4" fill="none"></path></g></g><mask id="mask-lPh8nMe7IiQpakLabIcXX"><rect x="0" y="0" fill="#fff" width="1457.0595932213073" height="1726.485608170614"></rect><rect x="1283.2314682213073" y="742.3428253910915" fill="#000" width="147.65625" height="43.199999999999996" opacity="1"></rect></mask><g transform="translate(1283.2314682213073 742.3428253910915) rotate(0 73.828125 21.59999999999991)"><text x="73.828125" y="0" font-family="Cascadia, Segoe UI Emoji" font-size="36px" fill="#1e1e1e" text-anchor="middle" style="white-space: pre;" direction="ltr" dominant-baseline="text-before-edge">user_id</text></g><g mask="url(#mask-_XS0XswAS54klpcvTOl9Z)" stroke-linecap="round"><g transform="translate(894.5780669732612 1184.6668951256793) rotate(0 -266.9561267472336 -130.0909380426947)"><path d="M0 0 C-88.99 -43.36, -444.93 -216.82, -533.91 -260.18 M0 0 C-88.99 -43.36, -444.93 -216.82, -533.91 -260.18" stroke="#1e1e1e" stroke-width="4" fill="none"></path></g><g transform="translate(894.5780669732612 1184.6668951256793) rotate(0 -266.9561267472336 -130.0909380426947)"><path d="M-504.08 -257.06 C-515.56 -258.26, -527.05 -259.46, -533.91 -260.18 M-504.08 -257.06 C-514.33 -258.13, -524.59 -259.21, -533.91 -260.18" stroke="#1e1e1e" stroke-width="4" fill="none"></path></g><g transform="translate(894.5780669732612 1184.6668951256793) rotate(0 -266.9561267472336 -130.0909380426947)"><path d="M-513.07 -238.61 C-521.09 -246.91, -529.12 -255.22, -533.91 -260.18 M-513.07 -238.61 C-520.23 -246.03, -527.4 -253.44, -533.91 -260.18" stroke="#1e1e1e" stroke-width="4" fill="none"></path></g></g><mask id="mask-_XS0XswAS54klpcvTOl9Z"><rect x="0" y="0" fill="#fff" width="1528.4903204677285" height="1544.8487712110687"></rect><rect x="553.7938152260285" y="1032.9759570829842" fill="#000" width="147.65625" height="43.199999999999996" opacity="1"></rect></mask><g transform="translate(553.7938152260285 1032.9759570829847) rotate(0 73.82812499999909 21.59999999999991)"><text x="73.828125" y="0" font-family="Cascadia, Segoe UI Emoji" font-size="36px" fill="#1e1e1e" text-anchor="middle" style="white-space: pre;" direction="ltr" dominant-baseline="text-before-edge">user_id</text></g><g mask="url(#mask-jK0gSqQfuJ2Tj0D7HqCkf)" stroke-linecap="round"><g transform="translate(892.4457381942575 1648.2204669081448) rotate(0 -198.5041344715264 104.99643801559614)"><path d="M0 0 C-66.17 35, -330.84 174.99, -397.01 209.99 M0 0 C-66.17 35, -330.84 174.99, -397.01 209.99" stroke="#1e1e1e" stroke-width="4" fill="none"></path></g><g transform="translate(892.4457381942575 1648.2204669081448) rotate(0 -198.5041344715264 104.99643801559614)"><path d="M-376.89 187.74 C-382.78 194.26, -388.67 200.78, -397.01 209.99 M-376.89 187.74 C-383.49 195.05, -390.1 202.36, -397.01 209.99" stroke="#1e1e1e" stroke-width="4" fill="none"></path></g><g transform="translate(892.4457381942575 1648.2204669081448) rotate(0 -198.5041344715264 104.99643801559614)"><path d="M-367.29 205.88 C-376 207.09, -384.7 208.29, -397.01 209.99 M-367.29 205.88 C-377.05 207.23, -386.81 208.58, -397.01 209.99" stroke="#1e1e1e" stroke-width="4" fill="none"></path></g></g><mask id="mask-jK0gSqQfuJ2Tj0D7HqCkf"><rect x="0" y="0" fill="#fff" width="1389.4540071373103" height="1958.213342939337"></rect><rect x="620.1134787227311" y="1731.6169049237405" fill="#000" width="147.65625" height="43.199999999999996" opacity="1"></rect></mask><g transform="translate(620.1134787227311 1731.6169049237405) rotate(0 73.828125 21.600000000000364)"><text x="73.828125" y="0" font-family="Cascadia, Segoe UI Emoji" font-size="36px" fill="#1e1e1e" text-anchor="middle" style="white-space: pre;" direction="ltr" dominant-baseline="text-before-edge">user_id</text></g><g mask="url(#mask-Q-_n7_tS0ScqAzNUIK7hO)" stroke-linecap="round"><g transform="translate(358.2403294244177 642.5396217140633) rotate(0 208.4547951494087 0.2663958994094173)"><path d="M0 0 C69.48 0.09, 347.42 0.44, 416.91 0.53 M0 0 C69.48 0.09, 347.42 0.44, 416.91 0.53" stroke="#1e1e1e" stroke-width="4" fill="none"></path></g><g transform="translate(358.2403294244177 642.5396217140633) rotate(0 208.4547951494087 0.2663958994094173)"><path d="M388.71 10.76 C399.35 6.9, 409.99 3.04, 416.91 0.53 M388.71 10.76 C394.79 8.55, 400.88 6.35, 416.91 0.53" stroke="#1e1e1e" stroke-width="4" fill="none"></path></g><g transform="translate(358.2403294244177 642.5396217140633) rotate(0 208.4547951494087 0.2663958994094173)"><path d="M388.73 -9.76 C399.37 -5.88, 410 -1.99, 416.91 0.53 M388.73 -9.76 C394.81 -7.54, 400.89 -5.32, 416.91 0.53" stroke="#1e1e1e" stroke-width="4" fill="none"></path></g></g><mask id="mask-Q-_n7_tS0ScqAzNUIK7hO"><rect x="0" y="0" fill="#fff" width="875.1499197232351" height="743.0724135128821"></rect><rect x="482.32012457382734" y="621.2060176134728" fill="#000" width="168.75" height="43.199999999999996" opacity="1"></rect></mask><g transform="translate(482.32012457382734 621.2060176134728) rotate(0 84.37499999999909 21.59999999999991)"><text x="84.375" y="0" font-family="Cascadia, Segoe UI Emoji" font-size="36px" fill="#1e1e1e" text-anchor="middle" style="white-space: pre;" direction="ltr" dominant-baseline="text-before-edge">order_id</text></g><g transform="translate(1203.3989523134715 368.9326200029018) rotate(0 311.7125549316406 41.64698683109782)"><text x="0" y="0" font-family="Cascadia, Segoe UI Emoji" font-size="23.137214906165408px" fill="#e03131" text-anchor="start" style="white-space: pre;" direction="ltr" dominant-baseline="text-before-edge">ALTER TABLE baskets</text><text x="0" y="27.76465788739849" font-family="Cascadia, Segoe UI Emoji" font-size="23.137214906165408px" fill="#e03131" text-anchor="start" style="white-space: pre;" direction="ltr" dominant-baseline="text-before-edge">ADD FOREIGN KEY (user_id) REFERENCES user (id)</text><text x="0" y="55.52931577479698" font-family="Cascadia, Segoe UI Emoji" font-size="23.137214906165408px" fill="#e03131" text-anchor="start" style="white-space: pre;" direction="ltr" dominant-baseline="text-before-edge">ON DELETE CASCADE;</text></g><g transform="translate(256.9028830058978 965.9744966875369) rotate(0 315.62109375 42.15668226923481)"><text x="0" y="0" font-family="Cascadia, Segoe UI Emoji" font-size="23.420379038463754px" fill="#e03131" text-anchor="start" style="white-space: pre;" direction="ltr" dominant-baseline="text-before-edge">ALTER TABLE orders</text><text x="0" y="28.104454846156504" font-family="Cascadia, Segoe UI Emoji" font-size="23.420379038463754px" fill="#e03131" text-anchor="start" style="white-space: pre;" direction="ltr" dominant-baseline="text-before-edge">ADD FOREIGN KEY (user_id) REFERENCES user (id)</text><text x="0" y="56.20890969231301" font-family="Cascadia, Segoe UI Emoji" font-size="23.420379038463754px" fill="#e03131" text-anchor="start" style="white-space: pre;" direction="ltr" dominant-baseline="text-before-edge">ON DELETE CASCADE;</text></g><g transform="translate(424.1731924435735 1918.8845227320353) rotate(0 343.517578125 45.892814887777604)"><text x="0" y="0" font-family="Cascadia, Segoe UI Emoji" font-size="25.49600827098766px" fill="#e03131" text-anchor="start" style="white-space: pre;" direction="ltr" dominant-baseline="text-before-edge">ALTER TABLE addresses</text><text x="0" y="30.595209925185188" font-family="Cascadia, Segoe UI Emoji" font-size="25.49600827098766px" fill="#e03131" text-anchor="start" style="white-space: pre;" direction="ltr" dominant-baseline="text-before-edge">ADD FOREIGN KEY (user_id) REFERENCES user (id)</text><text x="0" y="61.190419850370375" font-family="Cascadia, Segoe UI Emoji" font-size="25.49600827098766px" fill="#e03131" text-anchor="start" style="white-space: pre;" direction="ltr" dominant-baseline="text-before-edge">ON DELETE CASCADE;</text></g><g stroke-linecap="round" transform="translate(1861.2923317535751 69.95150605703338) rotate(0 128.6424041883356 171.56213421873895)"><path d="M0.48 0.11 L256.94 -1.23 L257.66 342.05 L0.77 344.78" stroke="none" stroke-width="0" fill="#ffec99"></path><path d="M-0.68 -1.28 C65.6 1.35, 131.61 1.06, 258.34 0.05 M0.11 -0.51 C90.43 -0.72, 181.29 -0.82, 257.65 0.14 M255.98 0.14 C254.42 119.16, 255.58 239.34, 257.22 344.08 M257.46 -0.32 C259.18 82.55, 259.51 166.26, 257.45 342.8 M257.76 342.58 C207.24 343.14, 154.29 343.11, 0.86 342.72 M256.77 343.44 C169.67 341.3, 83.57 342.18, 0.53 343.81 M-0.47 343.49 C0.65 235.32, 0.12 129.18, 0.95 -0.29 M0.04 343.45 C2.16 248.28, 2.51 153.6, -0.08 -0.04" stroke="#1e1e1e" stroke-width="1" fill="none"></path></g><g transform="translate(1879.7763649702338 222.98668705721366) rotate(0 110.15837097167969 18.526953218557992)"><text x="110.15837097167969" y="0" font-family="Helvetica, Segoe UI Emoji" font-size="32.22078820618772px" fill="#1e1e1e" text-anchor="middle" style="white-space: pre;" direction="ltr" dominant-baseline="text-before-edge">basket_product</text></g><g mask="url(#mask-LuJAnMwDjXJBb2elbvGml)" stroke-linecap="round"><g transform="translate(1531.1134494620255 240.95804440251368) rotate(0 161.68126392689646 0.02570217097331806)"><path d="M0 0 C53.89 0.01, 269.47 0.04, 323.36 0.05 M0 0 C53.89 0.01, 269.47 0.04, 323.36 0.05" stroke="#1e1e1e" stroke-width="4" fill="none"></path></g><g transform="translate(1531.1134494620255 240.95804440251368) rotate(0 161.68126392689646 0.02570217097331806)"><path d="M295.17 10.31 C302.43 7.67, 309.69 5.02, 323.36 0.05 M295.17 10.31 C304.73 6.83, 314.28 3.35, 323.36 0.05" stroke="#1e1e1e" stroke-width="4" fill="none"></path></g><g transform="translate(1531.1134494620255 240.95804440251368) rotate(0 161.68126392689646 0.02570217097331806)"><path d="M295.17 -10.21 C302.43 -7.57, 309.69 -4.93, 323.36 0.05 M295.17 -10.21 C304.73 -6.73, 314.28 -3.25, 323.36 0.05" stroke="#1e1e1e" stroke-width="4" fill="none"></path></g></g><mask id="mask-LuJAnMwDjXJBb2elbvGml"><rect x="0" y="0" fill="#fff" width="1954.4759773158185" height="341.0094487444603"></rect><rect x="1597.872838388921" y="219.38374657348731" fill="#000" width="189.84375" height="43.199999999999996" opacity="1"></rect></mask><g transform="translate(1597.872838388921 219.38374657348731) rotate(0 94.92187500000091 21.59999999999968)"><text x="94.921875" y="0" font-family="Cascadia, Segoe UI Emoji" font-size="36px" fill="#1e1e1e" text-anchor="middle" style="white-space: pre;" direction="ltr" dominant-baseline="text-before-edge">basket_id</text></g><g mask="url(#mask-PTyaj4VmGmnKRUzCTpbwn)" stroke-linecap="round"><g transform="translate(2498.828576679549 241.0952352594877) rotate(0 -184.47319663264625 0.11860492773166698)"><path d="M0 0 C-61.49 0.04, -307.46 0.2, -368.95 0.24 M0 0 C-61.49 0.04, -307.46 0.2, -368.95 0.24" stroke="#1e1e1e" stroke-width="4" fill="none"></path></g><g transform="translate(2498.828576679549 241.0952352594877) rotate(0 -184.47319663264625 0.11860492773166698)"><path d="M-340.76 -10.04 C-347.15 -7.71, -353.54 -5.38, -368.95 0.24 M-340.76 -10.04 C-347.82 -7.47, -354.87 -4.9, -368.95 0.24" stroke="#1e1e1e" stroke-width="4" fill="none"></path></g><g transform="translate(2498.828576679549 241.0952352594877) rotate(0 -184.47319663264625 0.11860492773166698)"><path d="M-340.75 10.48 C-347.14 8.16, -353.53 5.84, -368.95 0.24 M-340.75 10.48 C-347.81 7.92, -354.87 5.35, -368.95 0.24" stroke="#1e1e1e" stroke-width="4" fill="none"></path></g></g><mask id="mask-PTyaj4VmGmnKRUzCTpbwn"><rect x="0" y="0" fill="#fff" width="2967.7749699448414" height="341.33244511495104"></rect><rect x="2208.8866300469017" y="219.61384018721947" fill="#000" width="210.9375" height="43.199999999999996" opacity="1"></rect></mask><g transform="translate(2208.8866300469017 219.61384018721947) rotate(0 105.46875000000091 21.59999999999991)"><text x="105.46875" y="0" font-family="Cascadia, Segoe UI Emoji" font-size="36px" fill="#1e1e1e" text-anchor="middle" style="white-space: pre;" direction="ltr" dominant-baseline="text-before-edge">product_id</text></g><g transform="translate(2055.555952837549 464.64909972998703) rotate(0 267.97265625 31.677433631553185)"><text x="0" y="0" font-family="Cascadia, Segoe UI Emoji" font-size="17.598574239751816px" fill="#e03131" text-anchor="start" style="white-space: pre;" direction="ltr" dominant-baseline="text-before-edge">ALTER TABLE basket_product</text><text x="0" y="21.118289087702177" font-family="Cascadia, Segoe UI Emoji" font-size="17.598574239751816px" fill="#e03131" text-anchor="start" style="white-space: pre;" direction="ltr" dominant-baseline="text-before-edge">ADD FOREIGN KEY (product_id) REFERENCES product (id)</text><text x="0" y="42.236578175404354" font-family="Cascadia, Segoe UI Emoji" font-size="17.598574239751816px" fill="#e03131" text-anchor="start" style="white-space: pre;" direction="ltr" dominant-baseline="text-before-edge">ON DELETE CASCADE;</text></g><g transform="translate(1873.6219326175033 74.85985158177618) rotate(0 438.0322265625 73.91401180695766)"><text x="0" y="0" font-family="Cascadia, Segoe UI Emoji" font-size="17.598574239751816px" fill="#e03131" text-anchor="start" style="white-space: pre;" direction="ltr" dominant-baseline="text-before-edge">CREATE TABLE basket_product (</text><text x="0" y="21.118289087702177" font-family="Cascadia, Segoe UI Emoji" font-size="17.598574239751816px" fill="#e03131" text-anchor="start" style="white-space: pre;" direction="ltr" dominant-baseline="text-before-edge">basket_id INT NOT NULL,</text><text x="0" y="42.236578175404354" font-family="Cascadia, Segoe UI Emoji" font-size="17.598574239751816px" fill="#e03131" text-anchor="start" style="white-space: pre;" direction="ltr" dominant-baseline="text-before-edge">product_id INT NOT NULL,</text><text x="0" y="63.35486726310653" font-family="Cascadia, Segoe UI Emoji" font-size="17.598574239751816px" fill="#e03131" text-anchor="start" style="white-space: pre;" direction="ltr" dominant-baseline="text-before-edge">FOREIGN KEY (basket_id) REFERENCES basket (id) ON DELETE CASCADE ON UPDATE CASCADE,</text><text x="0" y="84.47315635080871" font-family="Cascadia, Segoe UI Emoji" font-size="17.598574239751816px" fill="#e03131" text-anchor="start" style="white-space: pre;" direction="ltr" dominant-baseline="text-before-edge">FOREIGN KEY (product_id) REFERENCES product (id) ON DELETE CASCADE ON UPDATE CASCADE,</text><text x="0" y="105.59144543851089" font-family="Cascadia, Segoe UI Emoji" font-size="17.598574239751816px" fill="#e03131" text-anchor="start" style="white-space: pre;" direction="ltr" dominant-baseline="text-before-edge">PRIMARY KEY (basket_id, product_id)</text><text x="0" y="126.70973452621305" font-family="Cascadia, Segoe UI Emoji" font-size="17.598574239751816px" fill="#e03131" text-anchor="start" style="white-space: pre;" direction="ltr" dominant-baseline="text-before-edge">);</text></g><g stroke-linecap="round" transform="translate(779.7623839064327 472.41695109837065) rotate(0 128.6424041883356 171.56213421873895)"><path d="M-0.39 -0.63 L258.43 -0.4 L257.81 341.53 L-1.38 341.17" stroke="none" stroke-width="0" fill="#ffec99"></path><path d="M0.57 1.07 C92.23 0.02, 185.56 -0.73, 257.05 -1.49 M0.65 0.47 C65.05 1.56, 128.91 0.5, 257.79 0.25 M256.17 0.06 C255.45 72.18, 254.54 141.96, 258.14 343.15 M257.91 -0.06 C257.61 117.85, 256.58 236.62, 257.64 342.66 M257.15 341.86 C178.92 344.34, 97.51 344.5, -0.99 342.92 M257.36 343.9 C184.39 342.89, 110.76 343.91, -0.43 342.56 M-0.73 342.49 C2.28 223.84, 1.2 105.49, 0.07 -0.16 M-0.13 343.02 C1.62 267.12, 1.71 192.89, 0.04 0.33" stroke="#1e1e1e" stroke-width="1" fill="none"></path></g><g transform="translate(808.1027785122515 625.4521320985509) rotate(0 100.30200958251953 18.526953218557992)"><text x="100.30200958251953" y="0" font-family="Helvetica, Segoe UI Emoji" font-size="32.22078820618772px" fill="#1e1e1e" text-anchor="middle" style="white-space: pre;" direction="ltr" dominant-baseline="text-before-edge">order_product</text></g><g mask="url(#mask-_nG2b2pVqpCMbPHkWl3pB)" stroke-linecap="round"><g transform="translate(2499.4038350345763 640.1182521379051) rotate(0 -728.99483139942 0.3221991437462748)"><path d="M0 0 C-243 0.11, -1214.99 0.54, -1457.99 0.64 M0 0 C-243 0.11, -1214.99 0.54, -1457.99 0.64" stroke="#1e1e1e" stroke-width="4" fill="none"></path></g><g transform="translate(2499.4038350345763 640.1182521379051) rotate(0 -728.99483139942 0.3221991437462748)"><path d="M-1429.8 -9.63 C-1437.37 -6.87, -1444.93 -4.12, -1457.99 0.64 M-1429.8 -9.63 C-1435.52 -7.54, -1441.24 -5.46, -1457.99 0.64" stroke="#1e1e1e" stroke-width="4" fill="none"></path></g><g transform="translate(2499.4038350345763 640.1182521379051) rotate(0 -728.99483139942 0.3221991437462748)"><path d="M-1429.79 10.89 C-1437.36 8.14, -1444.93 5.39, -1457.99 0.64 M-1429.79 10.89 C-1435.52 8.81, -1441.24 6.73, -1457.99 0.64" stroke="#1e1e1e" stroke-width="4" fill="none"></path></g></g><mask id="mask-_nG2b2pVqpCMbPHkWl3pB"><rect x="0" y="0" fill="#fff" width="4057.3934978334164" height="740.7626504253976"></rect><rect x="1664.9402536351554" y="618.8404512816514" fill="#000" width="210.9375" height="43.199999999999996" opacity="1"></rect></mask><g transform="translate(1664.9402536351554 618.8404512816514) rotate(0 105.46875000000091 21.59999999999991)"><text x="105.46875" y="0" font-family="Cascadia, Segoe UI Emoji" font-size="36px" fill="#1e1e1e" text-anchor="middle" style="white-space: pre;" direction="ltr" dominant-baseline="text-before-edge">product_id</text></g><g transform="translate(791.4533834893136 485.5752089159546) rotate(0 443.185546875 73.91401180695766)"><text x="0" y="0" font-family="Cascadia, Segoe UI Emoji" font-size="17.598574239751816px" fill="#e03131" text-anchor="start" style="white-space: pre;" direction="ltr" dominant-baseline="text-before-edge">CREATE TABLE order_product (</text><text x="0" y="21.118289087702177" font-family="Cascadia, Segoe UI Emoji" font-size="17.598574239751816px" fill="#e03131" text-anchor="start" style="white-space: pre;" direction="ltr" dominant-baseline="text-before-edge">order_id INT NOT NULL,</text><text x="0" y="42.236578175404354" font-family="Cascadia, Segoe UI Emoji" font-size="17.598574239751816px" fill="#e03131" text-anchor="start" style="white-space: pre;" direction="ltr" dominant-baseline="text-before-edge">product_id INT NOT NULL,</text><text x="0" y="63.35486726310653" font-family="Cascadia, Segoe UI Emoji" font-size="17.598574239751816px" fill="#e03131" text-anchor="start" style="white-space: pre;" direction="ltr" dominant-baseline="text-before-edge">FOREIGN KEY (order_id) REFERENCES order (id) ON DELETE CASCADE ON UPDATE CASCADE,</text><text x="0" y="84.47315635080871" font-family="Cascadia, Segoe UI Emoji" font-size="17.598574239751816px" fill="#e03131" text-anchor="start" style="white-space: pre;" direction="ltr" dominant-baseline="text-before-edge">FOREIGN KEY (product_id) REFERENCES product (id) ON DELETE RESTRICT ON UPDATE CASCADE,</text><text x="0" y="105.59144543851089" font-family="Cascadia, Segoe UI Emoji" font-size="17.598574239751816px" fill="#e03131" text-anchor="start" style="white-space: pre;" direction="ltr" dominant-baseline="text-before-edge">PRIMARY KEY (order_id, product_id)</text><text x="0" y="126.70973452621305" font-family="Cascadia, Segoe UI Emoji" font-size="17.598574239751816px" fill="#e03131" text-anchor="start" style="white-space: pre;" direction="ltr" dominant-baseline="text-before-edge">);</text></g><g stroke-linecap="round" transform="translate(2391.0135960995685 1270.9098031544236) rotate(0 173.35046329803845 231.18640885845025)"><path d="M0.23 1 C103.09 0.45, 205.41 0.5, 346.61 1.07 M0.61 0.25 C101.42 2.19, 204.31 1.43, 346.05 0.36 M347.22 0.36 C346.19 170.74, 346.2 339.96, 346.76 462.85 M346.65 0.3 C345.72 164.39, 345.37 330.11, 346.32 462.24 M347.23 461.97 C254.3 464.17, 163.16 464.63, -0.97 462.23 M346.41 462.96 C256.8 464.98, 166.08 464.3, 0.4 462.38 M-0.65 463.09 C1.89 293.14, 2.35 123.74, 0.74 -0.72 M-0.4 462.01 C0.08 281.66, 0.4 101.14, 0.46 0.16" stroke="#1e1e1e" stroke-width="1" fill="none"></path></g><g transform="translate(2499.816497752099 1467.844475454045) rotate(0 64.54756164550781 34.25173655882918)"><text x="64.54756164550781" y="0" font-family="Helvetica, Segoe UI Emoji" font-size="59.56823749361595px" fill="#1e1e1e" text-anchor="middle" style="white-space: pre;" direction="ltr" dominant-baseline="text-before-edge">roles</text></g><g stroke-linecap="round" transform="translate(1862.7918572796225 1330.5340777941356) rotate(0 128.6424041883356 171.56213421873917)"><path d="M0.86 -0.72 L258.12 1.72 L257.87 344.82 L-1.2 342.16" stroke="none" stroke-width="0" fill="#ffec99"></path><path d="M1.19 1.07 C60.69 -1.05, 121.95 -0.32, 256.47 -0.31 M0.05 0.34 C62.52 -1.84, 125.32 -1.34, 257.2 -0.18 M256.72 0.85 C258.82 79.54, 259.08 158.84, 257.09 342.14 M256.95 0.17 C258.74 112.08, 259.37 223.7, 257.46 343.58 M256.95 343.77 C168.41 341.42, 83.41 341.48, 0.48 341.82 M257.71 343.67 C189.12 341.91, 121.12 340.9, 0.14 343.39 M-0.95 342.71 C0.69 245.93, 1.26 148.65, 0.14 -0.9 M-0.05 343.43 C1.54 263.32, 1.1 182.78, -0.19 0.05" stroke="#1e1e1e" stroke-width="1" fill="none"></path></g><g transform="translate(1924.2725793390546 1483.569258794315) rotate(0 67.16168212890625 18.526953218557992)"><text x="67.16168212890625" y="0" font-family="Helvetica, Segoe UI Emoji" font-size="32.22078820618772px" fill="#1e1e1e" text-anchor="middle" style="white-space: pre;" direction="ltr" dominant-baseline="text-before-edge">user_role</text></g><g mask="url(#mask-K4Rz8XxIQa6qCw8eDOv0E)" stroke-linecap="round"><g transform="translate(1567.9861463169182 1499.3757870879235) rotate(0 146.25308843916264 0)"><path d="M0 0 C48.75 0, 243.76 0, 292.51 0 M0 0 C48.75 0, 243.76 0, 292.51 0" stroke="#1e1e1e" stroke-width="4" fill="none"></path></g><g transform="translate(1567.9861463169182 1499.3757870879235) rotate(0 146.25308843916264 0)"><path d="M264.32 10.26 C270.59 7.98, 276.87 5.69, 292.51 0 M264.32 10.26 C272.94 7.12, 281.56 3.99, 292.51 0" stroke="#1e1e1e" stroke-width="4" fill="none"></path></g><g transform="translate(1567.9861463169182 1499.3757870879235) rotate(0 146.25308843916264 0)"><path d="M264.32 -10.26 C270.59 -7.98, 276.87 -5.69, 292.51 0 M264.32 -10.26 C272.94 -7.12, 281.56 -3.99, 292.51 0" stroke="#1e1e1e" stroke-width="4" fill="none"></path></g></g><mask id="mask-K4Rz8XxIQa6qCw8eDOv0E"><rect x="0" y="0" fill="#fff" width="1960.4923231952434" height="1599.3757870879235"></rect><rect x="1640.4111097560817" y="1477.7757870879232" fill="#000" width="147.65625" height="43.199999999999996" opacity="1"></rect></mask><g transform="translate(1640.4111097560817 1477.7757870879232) rotate(0 73.82812499999909 21.600000000000364)"><text x="73.828125" y="0" font-family="Cascadia, Segoe UI Emoji" font-size="36px" fill="#1e1e1e" text-anchor="middle" style="white-space: pre;" direction="ltr" dominant-baseline="text-before-edge">user_id</text></g><g mask="url(#mask-6GYpRHYMO4kvOcztYDWlD)" stroke-linecap="round"><g transform="translate(2389.211593105878 1503.3427117870779) rotate(0 -131.55638241760698 0)"><path d="M0 0 C-43.85 0, -219.26 0, -263.11 0 M0 0 C-43.85 0, -219.26 0, -263.11 0" stroke="#1e1e1e" stroke-width="4" fill="none"></path></g><g transform="translate(2389.211593105878 1503.3427117870779) rotate(0 -131.55638241760698 0)"><path d="M-234.92 -10.26 C-244.66 -6.72, -254.39 -3.17, -263.11 0 M-234.92 -10.26 C-243.69 -7.07, -252.45 -3.88, -263.11 0" stroke="#1e1e1e" stroke-width="4" fill="none"></path></g><g transform="translate(2389.211593105878 1503.3427117870779) rotate(0 -131.55638241760698 0)"><path d="M-234.92 10.26 C-244.66 6.72, -254.39 3.17, -263.11 0 M-234.92 10.26 C-243.69 7.07, -252.45 3.88, -263.11 0" stroke="#1e1e1e" stroke-width="4" fill="none"></path></g></g><mask id="mask-6GYpRHYMO4kvOcztYDWlD"><rect x="0" y="0" fill="#fff" width="2752.324357941092" height="1603.3427117870779"></rect><rect x="2183.82708568827" y="1481.7427117870775" fill="#000" width="147.65625" height="43.199999999999996" opacity="1"></rect></mask><g transform="translate(2183.82708568827 1481.7427117870775) rotate(0 73.82812500000091 21.600000000000364)"><text x="73.828125" y="0" font-family="Cascadia, Segoe UI Emoji" font-size="36px" fill="#1e1e1e" text-anchor="middle" style="white-space: pre;" direction="ltr" dominant-baseline="text-before-edge">role_id</text></g><g transform="translate(1871.1787343014694 1337.1889212686037) rotate(0 412.265625 73.91401180695766)"><text x="0" y="0" font-family="Cascadia, Segoe UI Emoji" font-size="17.598574239751816px" fill="#e03131" text-anchor="start" style="white-space: pre;" direction="ltr" dominant-baseline="text-before-edge">CREATE TABLE user_role (</text><text x="0" y="21.118289087702177" font-family="Cascadia, Segoe UI Emoji" font-size="17.598574239751816px" fill="#e03131" text-anchor="start" style="white-space: pre;" direction="ltr" dominant-baseline="text-before-edge">user_id INT NOT NULL,</text><text x="0" y="42.236578175404354" font-family="Cascadia, Segoe UI Emoji" font-size="17.598574239751816px" fill="#e03131" text-anchor="start" style="white-space: pre;" direction="ltr" dominant-baseline="text-before-edge">role_id INT NOT NULL,</text><text x="0" y="63.35486726310653" font-family="Cascadia, Segoe UI Emoji" font-size="17.598574239751816px" fill="#e03131" text-anchor="start" style="white-space: pre;" direction="ltr" dominant-baseline="text-before-edge">FOREIGN KEY (user_id) REFERENCES users (id) ON DELETE CASCADE ON UPDATE CASCADE,</text><text x="0" y="84.47315635080871" font-family="Cascadia, Segoe UI Emoji" font-size="17.598574239751816px" fill="#e03131" text-anchor="start" style="white-space: pre;" direction="ltr" dominant-baseline="text-before-edge">FOREIGN KEY (role_id) REFERENCES roles (id) ON DELETE CASCADE ON UPDATE CASCADE,</text><text x="0" y="105.59144543851089" font-family="Cascadia, Segoe UI Emoji" font-size="17.598574239751816px" fill="#e03131" text-anchor="start" style="white-space: pre;" direction="ltr" dominant-baseline="text-before-edge">PRIMARY KEY (user_id, role_id)</text><text x="0" y="126.70973452621305" font-family="Cascadia, Segoe UI Emoji" font-size="17.598574239751816px" fill="#e03131" text-anchor="start" style="white-space: pre;" direction="ltr" dominant-baseline="text-before-edge">);</text></g></svg>